<?xml version="1.0" standalone="no"?>
<!DOCTYPE svg PUBLIC "-//W3C//DTD SVG 20010904//EN"
 "http://www.w3.org/TR/2001/REC-SVG-20010904/DTD/svg10.dtd">
<svg version="1.0" xmlns="http://www.w3.org/2000/svg"
 width="1696.000000pt" height="743.000000pt" viewBox="0 0 1696.000000 743.000000"
 preserveAspectRatio="xMidYMid meet">

<g transform="translate(0.000000,743.000000) scale(0.100000,-0.100000)"
fill="#000000" stroke="none">
<path d="M1936 7115 c-272 -44 -458 -134 -607 -293 -88 -93 -154 -214 -191
-347 -18 -67 -22 -107 -22 -250 -1 -167 0 -172 32 -265 52 -149 109 -237 247
-376 185 -186 397 -319 764 -479 307 -133 447 -219 591 -364 163 -164 211
-274 212 -481 1 -153 -20 -229 -87 -317 -114 -151 -323 -222 -649 -223 -367 0
-621 91 -813 293 -155 163 -236 366 -258 645 l-7 82 -69 0 -69 0 0 -585 0
-585 69 0 68 0 6 108 c6 114 21 169 59 209 32 35 71 30 121 -15 165 -150 342
-234 582 -278 149 -27 477 -24 640 5 314 56 525 158 693 336 90 94 157 213
189 335 28 104 23 345 -10 471 -56 214 -185 393 -399 554 -135 102 -234 159
-527 301 -392 191 -603 325 -756 480 -129 131 -174 232 -175 389 0 170 40 277
138 366 96 87 211 131 392 149 134 14 256 2 372 -37 339 -112 623 -453 645
-775 l6 -88 73 0 74 0 0 525 0 525 -75 0 -75 0 0 -245 c0 -135 -3 -245 -7
-245 -5 0 -53 48 -108 107 -123 131 -225 208 -369 278 -166 81 -237 97 -441
101 -115 2 -199 -2 -259 -11z"/>
<path d="M5227 7098 c-8 -18 -312 -786 -677 -1705 l-663 -1673 -251 -2 -251
-3 0 -70 0 -70 548 -3 547 -2 0 75 0 75 -219 2 -219 3 164 415 c91 228 231
580 311 783 l146 367 426 0 426 0 325 -776 c179 -426 327 -779 328 -784 2 -6
-68 -10 -182 -10 l-186 0 0 -75 0 -75 1960 0 c1078 0 1960 3 1960 8 0 4 27
273 60 597 33 325 61 604 62 620 l3 30 -77 3 -76 3 -6 -48 c-8 -63 -106 -1033
-106 -1050 0 -10 -148 -13 -755 -13 l-755 0 0 1630 0 1630 200 0 200 0 0 75 0
75 -680 0 -680 0 0 -75 0 -75 200 0 200 0 0 -1630 0 -1630 -388 0 -388 0 -714
1705 -715 1705 -32 0 c-28 0 -35 -5 -46 -32z m37 -1214 l185 -439 -179 -3
c-98 -1 -261 -1 -362 0 l-184 3 175 442 c97 243 177 441 178 439 1 -1 86 -200
187 -442z"/>
<path d="M10916 7115 c-272 -44 -458 -134 -607 -293 -88 -93 -154 -214 -191
-347 -18 -67 -22 -107 -22 -250 -1 -167 0 -172 32 -265 52 -149 109 -237 247
-376 185 -186 397 -319 764 -479 307 -133 447 -219 591 -364 163 -164 211
-274 212 -481 1 -153 -20 -229 -87 -317 -114 -151 -323 -222 -649 -223 -367 0
-621 91 -813 293 -155 163 -236 366 -258 645 l-7 82 -69 0 -69 0 0 -585 0
-585 69 0 68 0 6 108 c6 114 21 169 59 209 32 35 71 30 121 -15 165 -150 342
-234 582 -278 149 -27 477 -24 640 5 314 56 525 158 693 336 90 94 157 213
189 335 28 104 23 345 -10 471 -56 214 -185 393 -399 554 -135 102 -234 159
-527 301 -392 191 -603 325 -756 480 -129 131 -174 232 -175 389 0 170 40 277
138 366 96 87 211 131 392 149 134 14 256 2 372 -37 339 -112 623 -453 645
-775 l6 -88 73 0 74 0 0 525 0 525 -75 0 -75 0 0 -245 c0 -135 -3 -245 -7
-245 -5 0 -53 48 -108 107 -123 131 -225 208 -369 278 -166 81 -237 97 -441
101 -115 2 -199 -2 -259 -11z"/>
<path d="M14207 7098 c-8 -18 -312 -786 -677 -1705 l-663 -1673 -251 -2 -251
-3 0 -70 0 -70 548 -3 547 -2 0 75 0 75 -219 2 -219 3 164 415 c91 228 231
580 311 783 l146 367 426 0 426 0 325 -776 c179 -426 327 -779 328 -784 2 -6
-68 -10 -182 -10 l-186 0 0 -75 0 -75 680 0 680 0 0 75 0 75 -213 0 -213 0
-714 1705 -715 1705 -32 0 c-28 0 -35 -5 -46 -32z m37 -1214 l185 -439 -179
-3 c-98 -1 -261 -1 -362 0 l-184 3 175 442 c97 243 177 441 178 439 1 -1 86
-200 187 -442z"/>
<path d="M2038 3423 l-358 -3 0 -70 0 -70 206 0 206 0 34 -34 34 -34 0 -1426
0 -1426 -210 0 -210 0 0 -70 0 -70 495 0 495 0 0 70 0 70 -215 0 -215 0 0
1333 1 1332 22 -27 c12 -15 540 -646 1172 -1402 l1150 -1375 58 -1 57 0 0
1530 0 1530 215 0 215 0 0 70 0 70 -500 0 -501 0 3 -67 3 -68 213 -3 212 -2 0
-1177 c0 -1000 -2 -1175 -14 -1163 -7 8 -474 571 -1036 1250 l-1022 1235 -77
0 c-42 0 -237 -1 -433 -2z"/>
<path d="M6453 3420 c-392 -41 -730 -219 -959 -504 -498 -619 -493 -1660 11
-2226 160 -180 352 -307 579 -385 303 -103 686 -111 1001 -20 295 86 558 272
734 520 347 491 387 1275 95 1846 -213 417 -572 680 -1028 754 -116 19 -328
26 -433 15z m357 -157 c332 -68 595 -377 715 -840 50 -190 67 -323 72 -565 8
-331 -23 -569 -102 -798 -148 -424 -400 -649 -775 -690 -222 -24 -442 28 -603
144 -197 140 -345 386 -420 696 -50 203 -61 316 -61 580 0 264 11 373 61 585
157 669 572 1000 1113 888z"/>
<path d="M13605 3420 l-610 -5 -3 -67 -3 -68 186 0 185 0 0 -685 0 -685 -815
0 -815 0 0 685 0 685 180 0 180 0 0 70 0 70 -612 -2 -613 -3 -3 -67 -3 -68
186 0 185 0 0 -1460 0 -1460 -185 0 -186 0 3 -67 3 -68 613 -3 612 -2 0 70 0
70 -180 0 -180 0 0 705 0 705 815 0 815 0 0 -508 c0 -280 -3 -597 -7 -705 l-6
-197 -179 0 -179 0 3 -68 3 -67 1827 -3 1828 -2 4 22 c4 18 95 864 109 1008 2
24 0 25 -70 28 -68 3 -73 2 -78 -20 -3 -13 -41 -198 -85 -412 -44 -214 -88
-405 -98 -425 -13 -24 -30 -40 -53 -48 -25 -9 -190 -12 -606 -12 l-573 -1 0
706 0 706 288 -4 287 -3 51 -27 c85 -45 94 -69 94 -241 l0 -145 69 -4 69 -3 7
380 c3 209 5 430 3 490 l-3 110 -70 0 -70 0 -2 -135 c-3 -163 -5 -170 -45
-215 -56 -65 -56 -65 -383 -65 l-295 0 0 685 0 685 573 -1 c416 0 581 -3 607
-12 42 -15 75 -61 89 -126 6 -27 26 -179 45 -337 20 -159 38 -304 41 -322 l6
-33 72 3 72 3 -2 50 c-26 519 -46 910 -47 912 -4 5 -2510 7 -3051 3z m1085
-1600 l0 -1460 -415 0 -415 0 0 1460 0 1460 415 0 415 0 0 -1460z"/>
<path d="M9435 3409 c-100 -13 -253 -54 -349 -93 -433 -180 -694 -577 -778
-1186 -17 -125 -17 -535 1 -660 33 -242 81 -410 166 -586 171 -354 461 -563
890 -641 129 -24 458 -24 577 0 121 24 259 74 353 127 102 58 236 189 294 287
88 148 141 334 141 496 l0 87 -69 0 -68 0 -6 -102 c-18 -333 -208 -600 -506
-708 -123 -45 -237 -63 -401 -64 -122 0 -158 3 -225 22 -127 37 -209 85 -305
182 -167 167 -271 411 -327 761 -26 166 -26 761 0 929 88 563 293 888 627 992
66 20 95 23 235 23 114 -1 184 -6 245 -19 268 -56 464 -201 570 -421 59 -120
78 -191 87 -307 l6 -88 68 0 69 0 0 378 c0 207 3 428 7 490 l6 112 -70 0 -70
0 -7 -37 c-3 -21 -6 -117 -6 -213 l-1 -175 -21 30 c-49 69 -205 211 -278 252
-99 56 -260 108 -391 127 -115 17 -347 19 -464 5z"/>
<path d="M1055 3388 c-11 -7 -68 -14 -127 -16 -60 -3 -108 -8 -108 -12 0 -4
21 -12 48 -16 43 -8 47 -11 50 -41 3 -27 -49 -425 -64 -492 l-5 -24 -30 29
c-27 26 -36 29 -94 28 -128 -3 -275 -107 -364 -258 -84 -141 -137 -342 -129
-490 8 -143 54 -221 145 -246 136 -35 258 91 369 380 18 47 33 81 33 75 0 -5
-8 -68 -19 -140 -24 -160 -25 -203 -3 -256 51 -128 247 -58 338 120 38 77 19
83 -26 8 -51 -86 -101 -129 -142 -125 -31 3 -32 4 -35 58 -2 42 158 1190 194
1398 7 34 1 38 -31 20z m-240 -620 c26 -20 27 -24 20 -82 -10 -88 -68 -308
-110 -417 -63 -164 -139 -285 -197 -315 -44 -23 -97 -15 -122 19 -19 26 -21
42 -21 170 1 123 5 156 28 242 51 188 142 335 237 385 50 27 130 26 165 -2z"/>
<path d="M1611 2840 c-105 -22 -215 -109 -278 -220 -77 -134 -122 -342 -104
-474 29 -204 126 -311 283 -310 119 2 229 79 301 212 36 66 20 67 -28 2 -69
-93 -169 -139 -259 -116 -38 9 -85 54 -111 106 -24 48 -49 163 -36 168 239 95
327 146 407 235 103 114 121 249 47 338 -45 53 -134 77 -222 59z m115 -51 c15
-16 20 -40 23 -104 3 -72 0 -91 -21 -137 -51 -110 -157 -212 -290 -279 -32
-16 -60 -29 -63 -29 -11 0 -4 78 14 165 34 166 125 337 204 385 44 27 108 26
133 -1z"/>
</g>
</svg>
